<?xml version="1.0" encoding="UTF-8"?>
<svg id="Layer_2" data-name="Layer 2" xmlns="http://www.w3.org/2000/svg" viewBox="0 0 516.53 173.22">
  <defs>
    <style>
      .cls-1 {
        fill: #000;
      }
    </style>
  </defs>
  <g id="Layer_1-2" data-name="Layer 1">
    <g>
      <path class="cls-1" d="M14.14,57.68c1.09,4.14,4.47,6.47,9.84,6.47s7.25-1.91,7.25-5.06c0-3.34-2.23-4.65-9.68-6.47C4.62,48.45,1.84,43.2,1.84,35.87s5.4-15.74,21.08-15.74,21.1,8.61,21.55,15.65h-13.69c-.46-1.92-1.74-5.55-8.51-5.55-4.76,0-6.3,2.11-6.3,4.45,0,2.59,1.61,3.83,10.05,5.8,17.34,4.03,19.8,9.98,19.8,17.6,0,8.61-6.55,16.44-22.4,16.44S1.14,66.9,0,57.68H14.14Z"/>
      <path class="cls-1" d="M48.32,73.31V0h14.39V73.31h-14.39Z"/>
      <path class="cls-1" d="M69.11,0h14.39V12.84h-14.39V0Zm0,21.33h14.39v51.98h-14.39V21.33Z"/>
      <path class="cls-1" d="M137.59,0V59.03c0,4.73,0,9.53,.1,14.29h-13.84c-.29-1.56-.57-4.25-.65-5.43-2.51,4.09-6.99,6.64-14.75,6.64-13.15,0-21.51-10.56-21.51-26.77s8.89-27.62,23.61-27.62c7.48,0,11.5,2.64,12.65,4.97V0h14.39Zm-35.87,47.37c0,10.13,3.95,15.62,10.99,15.62,9.9,0,11.04-8.25,11.04-15.73,0-8.89-1.26-15.61-10.66-15.61-7.56,0-11.37,5.9-11.37,15.72Z"/>
      <path class="cls-1" d="M155.28,50.4c.01,6.5,3.27,12.86,10.44,12.86,5.99,0,7.7-2.41,9.07-5.55h14.41c-1.84,6.36-7.52,16.81-23.85,16.81s-24.55-12.8-24.55-26.44c0-16.31,8.37-27.95,25.07-27.95,17.85,0,23.92,12.92,23.92,25.89,0,1.76,0,2.9-.19,4.38h-34.31Zm20.08-8.84c-.1-6.05-2.52-11.15-9.53-11.15s-9.67,4.76-10.25,11.15h19.78Z"/>
      <path class="cls-1" d="M202.72,21.33c5.37,17.94,10.05,33.94,10.88,38.75h.1c1.12-5.24,4.17-16.89,10.38-38.75h14.33l-17.47,53.48c-4.97,14.95-9.12,19.42-21.6,19.42-1.28,0-4.25-.1-6.74-.39v-11.56c.98,.11,2.56,.21,3.72,.21,5.29,0,7.95-1.83,9.9-7.58l-18.92-53.58h15.43Z"/>
      <path class="cls-1" d="M48.54,136.52c-1.79,8.66-7.88,18-23.37,18S.66,143.32,.66,127.7s9.37-27.58,25.19-27.58c17.53,0,22.4,12.58,22.68,18.46h-14.05c-.89-4.23-3.29-7.19-8.91-7.19-6.58,0-10.31,5.77-10.31,15.85,0,11.07,3.94,16.11,10.25,16.11,4.94,0,7.6-2.92,8.88-6.83h14.14Z"/>
      <path class="cls-1" d="M100,127.22c0,15.73-9.41,27.3-25.88,27.3s-25.53-11.5-25.53-27.02,9.7-27.37,26.21-27.37c15.3,0,25.2,10.8,25.2,27.1Zm-36.81,.1c0,10.01,4.31,15.93,11.24,15.93s10.96-5.93,10.96-15.85c0-10.88-3.99-16.02-11.16-16.02-6.68,0-11.04,4.94-11.04,15.94Z"/>
      <path class="cls-1" d="M103.35,114.73c0-4.5,0-8.95-.1-13.4h13.76c.19,1.27,.48,4.17,.55,6.2,2.64-3.87,6.82-7.4,14.45-7.4s11.58,3.87,13.41,7.91c3.04-4.25,7.53-7.91,16.02-7.91,9.06,0,16.48,5.57,16.48,19.09v34.1h-14.04v-32.35c0-4.7-1.7-9.29-7.6-9.29s-8.5,3.94-8.5,11.92v29.72h-14.12v-31.81c0-5.39-1.33-9.74-7.47-9.74s-8.63,3.6-8.63,12.52v29.03h-14.22v-38.59Z"/>
      <path class="cls-1" d="M198.6,148.71v24.51h-14.31v-59.36c0-4.21,0-8.36-.1-12.53h13.94c.2,1.38,.47,4.57,.47,6.48,2.23-3.82,6.87-7.68,15.11-7.68,11.67,0,20.71,9.77,20.71,25.89,0,18.34-10.08,28.5-22.68,28.5-7.33,0-11.16-2.77-13.14-5.81Zm21.21-22.14c0-9.53-3.86-14.91-10.7-14.91-8.17,0-11.07,5.25-11.07,15.72,0,9.92,2.68,15.69,10.46,15.69s11.32-5.92,11.32-16.51Z"/>
      <path class="cls-1" d="M286.79,127.22c0,15.73-9.41,27.3-25.88,27.3s-25.53-11.5-25.53-27.02,9.7-27.37,26.21-27.37c15.3,0,25.2,10.8,25.2,27.1Zm-36.81,.1c0,10.01,4.31,15.93,11.24,15.93s10.96-5.93,10.96-15.85c0-10.88-3.99-16.02-11.16-16.02-6.68,0-11.04,4.94-11.04,15.94Z"/>
      <path class="cls-1" d="M290.24,114.42c0-4.42,0-9.26-.1-13.1h13.94c.29,1.34,.48,4.95,.55,6.62,1.77-3.27,5.97-7.83,15.08-7.83,10.44,0,17.23,7.06,17.23,20.12v33.07h-14.39v-31.47c0-5.84-1.95-10.08-8.3-10.08s-9.62,3.4-9.62,12.58v28.97h-14.39v-38.89Z"/>
      <path class="cls-1" d="M354.62,130.4c.01,6.5,3.27,12.86,10.44,12.86,5.99,0,7.7-2.41,9.07-5.55h14.41c-1.84,6.36-7.52,16.81-23.85,16.81s-24.55-12.8-24.55-26.44c0-16.31,8.37-27.95,25.07-27.95,17.85,0,23.92,12.92,23.92,25.89,0,1.76,0,2.9-.19,4.38h-34.31Zm20.08-8.84c-.1-6.05-2.52-11.15-9.53-11.15s-9.67,4.76-10.25,11.15h19.78Z"/>
      <path class="cls-1" d="M392.77,114.42c0-4.42,0-9.26-.1-13.1h13.94c.29,1.34,.48,4.95,.55,6.62,1.77-3.27,5.97-7.83,15.08-7.83,10.44,0,17.23,7.06,17.23,20.12v33.07h-14.39v-31.47c0-5.84-1.95-10.08-8.3-10.08s-9.62,3.4-9.62,12.58v28.97h-14.39v-38.89Z"/>
      <path class="cls-1" d="M439.65,101.33h8.01v-14.08h14.39v14.08h10.18v10.82h-10.18v25.66c0,3.94,1.21,5.48,5.5,5.48,.8,0,2.2-.01,3.28-.16v9.9c-2.86,.97-6.77,.99-9.67,.99-10.14,0-13.49-5.42-13.49-14.52v-27.35h-8.01v-10.82Z"/>
      <path class="cls-1" d="M484.84,137.68c1.09,4.14,4.47,6.47,9.84,6.47s7.25-1.91,7.25-5.06c0-3.34-2.23-4.65-9.68-6.47-16.93-4.17-19.71-9.42-19.71-16.75s5.4-15.74,21.08-15.74,21.1,8.61,21.55,15.65h-13.69c-.46-1.92-1.74-5.55-8.51-5.55-4.76,0-6.3,2.11-6.3,4.45,0,2.59,1.61,3.83,10.05,5.8,17.34,4.03,19.8,9.98,19.8,17.6,0,8.61-6.55,16.44-22.4,16.44s-22.3-7.62-23.44-16.83h14.14Z"/>
    </g>
  </g>
</svg>